<svg width="24" height="24" viewBox="0 0 24 24" fill="none" xmlns="http://www.w3.org/2000/svg">
<path d="M20 15V18H23V20H20V23H18V20H15V18H18V15H20ZM12 13C10.9 13 10 13.9 10 15C10 16.1 10.9 17 12 17C13.1 17 14 16.1 14 15C14 13.9 13.1 13 12 13ZM13.35 21H5.5C4.58 21 3.81 20.38 3.58 19.54L1.04 10.27C1 10.18 1 10.09 1 9.99997C1 9.44997 1.45 8.99997 2 8.99997H6.79L11.17 2.44997C11.2602 2.31266 11.3829 2.19977 11.5272 2.12132C11.6716 2.04288 11.833 2.00131 11.9973 2.00032C12.1616 1.99933 12.3236 2.03895 12.4688 2.11565C12.6141 2.19235 12.7382 2.30376 12.83 2.43997L17.21 8.99997H22C22.55 8.99997 23 9.44997 23 9.99997L22.97 10.27L22 13.81C21.43 13.5 20.79 13.24 20.12 13.11L20.7 11H3.31L5.5 19H13C13 19.7 13.13 20.37 13.35 21ZM9.2 8.99997H14.8L12 4.79997L9.2 8.99997Z" fill="black"/>
</svg>
